SplineFontDB: 3.2
FontName: DotumChe-Pixel
FullName: DotumChe Pixel Regular
FamilyName: DotumChe Pixel
Weight: Book
Copyright: Copyright William Costello 2017
Version: 1.0
ItalicAngle: 0
UnderlinePosition: -288
UnderlineWidth: 64
Ascent: 819
Descent: 205
InvalidEm: 0
sfntRevision: 0x00010000
woffMajor: 1
woffMinor: 0
LayerCount: 2
Layer: 0 1 "Back" 1
Layer: 1 1 "Fore" 0
XUID: [1021 737 319405113 6723419]
StyleMap: 0x0040
FSType: 8
OS2Version: 2
OS2_WeightWidthSlopeOnly: 0
OS2_UseTypoMetrics: 0
CreationTime: 1614874907
ModificationTime: 1652530740
PfmFamily: 81
TTFWeight: 400
TTFWidth: 5
LineGap: 0
VLineGap: 0
Panose: 0 0 4 0 0 0 0 0 0 0
OS2TypoAscent: 945
OS2TypoAOffset: 0
OS2TypoDescent: -78
OS2TypoDOffset: 0
OS2TypoLinegap: 0
OS2WinAscent: 1102
OS2WinAOffset: 0
OS2WinDescent: 78
OS2WinDOffset: 0
HheadAscent: 1102
HheadAOffset: 0
HheadDescent: -78
HheadDOffset: 0
OS2SubXSize: 512
OS2SubYSize: 512
OS2SubXOff: 0
OS2SubYOff: -39
OS2SupXSize: 512
OS2SupYSize: 512
OS2SupXOff: 0
OS2SupYOff: 512
OS2StrikeYSize: 51
OS2StrikeYPos: 204
OS2CapHeight: 945
OS2XHeight: 630
OS2Vendor: 'FSTR'
OS2CodePages: 00000001.00000000
OS2UnicodeRanges: 00000001.00000000.00000000.00000000
MarkAttachClasses: 1
DEI: 91125
ShortTable: maxp 16
  1
  0
  98
  56
  5
  0
  0
  2
  0
  0
  0
  0
  0
  0
  0
  0
EndShort
LangName: 1033 "" "" "Regular" "DotumChe Pixel" "" "1.0" "" "FontStruct is a trademark of FontStruct.com" "https://fontstruct.com" "William Costello" "+IBwA-DotumChe Pixel+IB0A was built with FontStruct+AAoA-Designer description: <p>This is the font used for speech bubbles in battle from the game Undertale.</p>+AAoA" "https://fontstruct.com/fontstructions/show/1386862/dotumche-pixel-1" "https://fontstruct.com/fontstructors/show/1389119/fab-william1729" "Open Font License" "" "" "" "" "" "Five big quacking zephyrs jolt my wax bed"
GaspTable: 1 65535 2 0
Encoding: UnicodeBmp
UnicodeInterp: none
NameList: AGL For New Fonts
DisplaySize: -48
AntiAlias: 0
FitToEm: 0
WinInfo: 0 35 12

StartChar: .notdef
Encoding: 65536 -1 0
Width: 805
Flags: W
LayerCount: 2
Fore
SplineSet
692 25 m 1,0,-1
 364 463 l 1,1,-1
 34 25 l 1,2,-1
 692 25 l 1,0,-1
25 34 m 1,3,-1
 354 472 l 1,4,-1
 25 910 l 1,5,-1
 25 34 l 1,6,-1
 25 34 l 1,3,-1
702 34 m 1,7,-1
 702 910 l 1,8,-1
 373 472 l 1,9,-1
 702 34 l 1,10,-1
 702 34 l 1,7,-1
364 482 m 1,11,-1
 692 920 l 1,12,-1
 34 920 l 1,13,-1
 364 482 l 1,14,-1
 364 482 l 1,11,-1
0 0 m 1,15,-1
 0 945 l 1,16,-1
 727 945 l 1,17,-1
 727 0 l 1,18,-1
 0 0 l 1,15,-1
EndSplineSet
EndChar

StartChar: exclam
Encoding: 33 33 4
Width: 708
VWidth: 1082
GlyphClass: 2
Flags: W
LayerCount: 2
Fore
SplineSet
177 58 m 1,0,-1
 177 176 l 1,1,-1
 296 176 l 1,2,-1
 296 58 l 1,3,-1
 177 58 l 1,0,-1
177 294 m 1,4,-1
 177 767 l 1,5,-1
 296 767 l 1,6,-1
 296 294 l 1,7,-1
 177 294 l 1,4,-1
EndSplineSet
EndChar

StartChar: quotedbl
Encoding: 34 34 5
Width: 708
VWidth: 1082
GlyphClass: 2
Flags: W
LayerCount: 2
Fore
SplineSet
58 530 m 1,0,-1
 58 767 l 1,1,-1
 177 767 l 1,2,-1
 177 530 l 1,3,-1
 58 530 l 1,0,-1
236 530 m 1,4,-1
 236 767 l 1,5,-1
 354 767 l 1,6,-1
 354 530 l 1,7,-1
 236 530 l 1,4,-1
EndSplineSet
EndChar

StartChar: numbersign
Encoding: 35 35 6
Width: 708
VWidth: 1082
GlyphClass: 2
Flags: W
LayerCount: 2
Fore
SplineSet
296 294 m 1,0,-1
 296 530 l 1,1,-1
 236 530 l 1,2,-1
 236 294 l 1,3,-1
 296 294 l 1,0,-1
58 58 m 1,4,-1
 58 235 l 1,5,-1
 0 235 l 1,6,-1
 0 294 l 1,7,-1
 118 294 l 1,8,-1
 118 530 l 1,9,-1
 58 530 l 1,10,-1
 58 589 l 1,11,-1
 177 589 l 1,12,-1
 177 767 l 1,13,-1
 296 767 l 1,14,-1
 296 589 l 1,15,-1
 354 589 l 1,16,-1
 354 767 l 1,17,-1
 472 767 l 1,18,-1
 472 589 l 1,19,-1
 531 589 l 1,20,-1
 531 530 l 1,21,-1
 413 530 l 1,22,-1
 413 294 l 1,23,-1
 472 294 l 1,24,-1
 472 235 l 1,25,-1
 354 235 l 1,26,-1
 354 58 l 1,27,-1
 236 58 l 1,28,-1
 236 235 l 1,29,-1
 177 235 l 1,30,-1
 177 58 l 1,31,-1
 58 58 l 1,4,-1
EndSplineSet
EndChar

StartChar: dollar
Encoding: 36 36 7
Width: 708
VWidth: 1082
GlyphClass: 2
Flags: W
LayerCount: 2
Fore
SplineSet
354 176 m 1,0,-1
 354 294 l 1,1,-1
 296 294 l 1,2,-1
 296 176 l 1,3,-1
 354 176 l 1,0,-1
177 530 m 1,4,-1
 177 649 l 1,5,-1
 118 649 l 1,6,-1
 118 530 l 1,7,-1
 177 530 l 1,4,-1
177 0 m 1,8,-1
 177 58 l 1,9,-1
 118 58 l 1,10,-1
 118 116 l 1,11,-1
 58 116 l 1,12,-1
 58 176 l 1,13,-1
 0 176 l 1,14,-1
 0 235 l 1,15,-1
 118 235 l 1,16,-1
 118 176 l 1,17,-1
 177 176 l 1,18,-1
 177 412 l 1,19,-1
 118 412 l 1,20,-1
 118 471 l 1,21,-1
 58 471 l 1,22,-1
 58 530 l 1,23,-1
 0 530 l 1,24,-1
 0 649 l 1,25,-1
 58 649 l 1,26,-1
 58 708 l 1,27,-1
 118 708 l 1,28,-1
 118 767 l 1,29,-1
 177 767 l 1,30,-1
 177 884 l 1,31,-1
 296 884 l 1,32,-1
 296 767 l 1,33,-1
 354 767 l 1,34,-1
 354 708 l 1,35,-1
 413 708 l 1,36,-1
 413 649 l 1,37,-1
 472 649 l 1,38,-1
 472 589 l 1,39,-1
 354 589 l 1,40,-1
 354 649 l 1,41,-1
 296 649 l 1,42,-1
 296 412 l 1,43,-1
 354 412 l 1,44,-1
 354 354 l 1,45,-1
 413 354 l 1,46,-1
 413 294 l 1,47,-1
 472 294 l 1,48,-1
 472 176 l 1,49,-1
 413 176 l 1,50,-1
 413 116 l 1,51,-1
 354 116 l 1,52,-1
 354 58 l 1,53,-1
 296 58 l 1,54,-1
 296 0 l 1,55,-1
 177 0 l 1,8,-1
EndSplineSet
EndChar

StartChar: percent
Encoding: 37 37 8
Width: 708
VWidth: 1082
GlyphClass: 2
Flags: W
LayerCount: 2
Fore
SplineSet
354 116 m 1,0,-1
 354 294 l 1,1,-1
 296 294 l 1,2,-1
 296 116 l 1,3,-1
 354 116 l 1,0,-1
177 530 m 1,4,-1
 177 708 l 1,5,-1
 118 708 l 1,6,-1
 118 530 l 1,7,-1
 177 530 l 1,4,-1
0 58 m 1,8,-1
 0 116 l 1,9,-1
 58 116 l 1,10,-1
 58 235 l 1,11,-1
 118 235 l 1,12,-1
 118 354 l 1,13,-1
 177 354 l 1,14,-1
 177 471 l 1,15,-1
 58 471 l 1,16,-1
 58 530 l 1,17,-1
 0 530 l 1,18,-1
 0 708 l 1,19,-1
 58 708 l 1,20,-1
 58 767 l 1,21,-1
 236 767 l 1,22,-1
 236 708 l 1,23,-1
 354 708 l 1,24,-1
 354 767 l 1,25,-1
 472 767 l 1,26,-1
 472 708 l 1,27,-1
 413 708 l 1,28,-1
 413 589 l 1,29,-1
 354 589 l 1,30,-1
 354 471 l 1,31,-1
 296 471 l 1,32,-1
 296 354 l 1,33,-1
 413 354 l 1,34,-1
 413 294 l 1,35,-1
 472 294 l 1,36,-1
 472 116 l 1,37,-1
 413 116 l 1,38,-1
 413 58 l 1,39,-1
 236 58 l 1,40,-1
 236 116 l 1,41,-1
 118 116 l 1,42,-1
 118 58 l 1,43,-1
 0 58 l 1,8,-1
EndSplineSet
EndChar

StartChar: ampersand
Encoding: 38 38 9
Width: 708
VWidth: 1082
GlyphClass: 2
Flags: W
LayerCount: 2
Fore
SplineSet
236 116 m 1,0,-1
 236 176 l 1,1,-1
 296 176 l 1,2,-1
 296 294 l 1,3,-1
 236 294 l 1,4,-1
 236 412 l 1,5,-1
 177 412 l 1,6,-1
 177 354 l 1,7,-1
 118 354 l 1,8,-1
 118 116 l 1,9,-1
 236 116 l 1,0,-1
236 530 m 1,10,-1
 236 708 l 1,11,-1
 177 708 l 1,12,-1
 177 530 l 1,13,-1
 236 530 l 1,10,-1
58 58 m 1,14,-1
 58 116 l 1,15,-1
 0 116 l 1,16,-1
 0 354 l 1,17,-1
 58 354 l 1,18,-1
 58 412 l 1,19,-1
 118 412 l 1,20,-1
 118 530 l 1,21,-1
 58 530 l 1,22,-1
 58 708 l 1,23,-1
 118 708 l 1,24,-1
 118 767 l 1,25,-1
 296 767 l 1,26,-1
 296 708 l 1,27,-1
 354 708 l 1,28,-1
 354 530 l 1,29,-1
 296 530 l 1,30,-1
 296 412 l 1,31,-1
 354 412 l 1,32,-1
 354 471 l 1,33,-1
 472 471 l 1,34,-1
 472 294 l 1,35,-1
 413 294 l 1,36,-1
 413 176 l 1,37,-1
 472 176 l 1,38,-1
 472 58 l 1,39,-1
 354 58 l 1,40,-1
 354 116 l 1,41,-1
 296 116 l 1,42,-1
 296 58 l 1,43,-1
 58 58 l 1,14,-1
EndSplineSet
EndChar

StartChar: quotesingle
Encoding: 39 39 10
Width: 708
VWidth: 1082
GlyphClass: 2
Flags: W
LayerCount: 2
Fore
SplineSet
177 530 m 1,0,-1
 177 767 l 1,1,-1
 296 767 l 1,2,-1
 296 530 l 1,3,-1
 177 530 l 1,0,-1
EndSplineSet
EndChar

StartChar: parenleft
Encoding: 40 40 11
Width: 708
VWidth: 1082
GlyphClass: 2
Flags: W
LayerCount: 2
Fore
SplineSet
236 0 m 1,0,-1
 236 58 l 1,1,-1
 177 58 l 1,2,-1
 177 116 l 1,3,-1
 118 116 l 1,4,-1
 118 235 l 1,5,-1
 58 235 l 1,6,-1
 58 530 l 1,7,-1
 118 530 l 1,8,-1
 118 649 l 1,9,-1
 177 649 l 1,10,-1
 177 708 l 1,11,-1
 236 708 l 1,12,-1
 236 767 l 1,13,-1
 354 767 l 1,14,-1
 354 708 l 1,15,-1
 296 708 l 1,16,-1
 296 649 l 1,17,-1
 236 649 l 1,18,-1
 236 530 l 1,19,-1
 177 530 l 1,20,-1
 177 235 l 1,21,-1
 236 235 l 1,22,-1
 236 116 l 1,23,-1
 296 116 l 1,24,-1
 296 58 l 1,25,-1
 354 58 l 1,26,-1
 354 0 l 1,27,-1
 236 0 l 1,0,-1
EndSplineSet
EndChar

StartChar: parenright
Encoding: 41 41 12
Width: 708
VWidth: 1082
GlyphClass: 2
Flags: W
LayerCount: 2
Fore
SplineSet
118 0 m 1,0,-1
 118 58 l 1,1,-1
 177 58 l 1,2,-1
 177 116 l 1,3,-1
 236 116 l 1,4,-1
 236 235 l 1,5,-1
 296 235 l 1,6,-1
 296 530 l 1,7,-1
 236 530 l 1,8,-1
 236 649 l 1,9,-1
 177 649 l 1,10,-1
 177 708 l 1,11,-1
 118 708 l 1,12,-1
 118 767 l 1,13,-1
 236 767 l 1,14,-1
 236 708 l 1,15,-1
 296 708 l 1,16,-1
 296 649 l 1,17,-1
 354 649 l 1,18,-1
 354 530 l 1,19,-1
 413 530 l 1,20,-1
 413 235 l 1,21,-1
 354 235 l 1,22,-1
 354 116 l 1,23,-1
 296 116 l 1,24,-1
 296 58 l 1,25,-1
 236 58 l 1,26,-1
 236 0 l 1,27,-1
 118 0 l 1,0,-1
EndSplineSet
EndChar

StartChar: asterisk
Encoding: 42 42 13
Width: 708
VWidth: 1082
GlyphClass: 2
Flags: W
LayerCount: 2
Fore
SplineSet
58 235 m 1,0,-1
 58 294 l 1,1,-1
 118 294 l 1,2,-1
 118 412 l 1,3,-1
 58 412 l 1,4,-1
 58 471 l 1,5,-1
 177 471 l 1,6,-1
 177 530 l 1,7,-1
 296 530 l 1,8,-1
 296 471 l 1,9,-1
 413 471 l 1,10,-1
 413 412 l 1,11,-1
 354 412 l 1,12,-1
 354 294 l 1,13,-1
 413 294 l 1,14,-1
 413 235 l 1,15,-1
 296 235 l 1,16,-1
 296 294 l 1,17,-1
 177 294 l 1,18,-1
 177 235 l 1,19,-1
 58 235 l 1,0,-1
EndSplineSet
EndChar

StartChar: plus
Encoding: 43 43 14
Width: 708
VWidth: 1082
GlyphClass: 2
Flags: W
LayerCount: 2
Fore
SplineSet
177 176 m 1,0,-1
 177 354 l 1,1,-1
 0 354 l 1,2,-1
 0 412 l 1,3,-1
 177 412 l 1,4,-1
 177 589 l 1,5,-1
 296 589 l 1,6,-1
 296 412 l 1,7,-1
 472 412 l 1,8,-1
 472 354 l 1,9,-1
 296 354 l 1,10,-1
 296 176 l 1,11,-1
 177 176 l 1,0,-1
EndSplineSet
EndChar

StartChar: comma
Encoding: 44 44 15
Width: 708
VWidth: 1082
GlyphClass: 2
Flags: W
LayerCount: 2
Fore
SplineSet
118 0 m 1,0,-1
 118 58 l 1,1,-1
 177 58 l 1,2,-1
 177 176 l 1,3,-1
 296 176 l 1,4,-1
 296 58 l 1,5,-1
 236 58 l 1,6,-1
 236 0 l 1,7,-1
 118 0 l 1,0,-1
EndSplineSet
EndChar

StartChar: hyphen
Encoding: 45 45 16
Width: 708
VWidth: 1082
GlyphClass: 2
Flags: W
LayerCount: 2
Fore
SplineSet
0 354 m 1,0,-1
 0 412 l 1,1,-1
 472 412 l 1,2,-1
 472 354 l 1,3,-1
 0 354 l 1,0,-1
EndSplineSet
EndChar

StartChar: period
Encoding: 46 46 17
Width: 708
VWidth: 1082
GlyphClass: 2
Flags: W
LayerCount: 2
Fore
SplineSet
177 58 m 1,0,-1
 177 176 l 1,1,-1
 296 176 l 1,2,-1
 296 58 l 1,3,-1
 177 58 l 1,0,-1
EndSplineSet
EndChar

StartChar: slash
Encoding: 47 47 18
Width: 708
VWidth: 1082
GlyphClass: 2
Flags: W
LayerCount: 2
Fore
SplineSet
0 116 m 1,0,-1
 0 235 l 1,1,-1
 58 235 l 1,2,-1
 58 354 l 1,3,-1
 118 354 l 1,4,-1
 118 471 l 1,5,-1
 177 471 l 1,6,-1
 177 589 l 1,7,-1
 236 589 l 1,8,-1
 236 708 l 1,9,-1
 296 708 l 1,10,-1
 296 826 l 1,11,-1
 413 826 l 1,12,-1
 413 708 l 1,13,-1
 354 708 l 1,14,-1
 354 589 l 1,15,-1
 296 589 l 1,16,-1
 296 471 l 1,17,-1
 236 471 l 1,18,-1
 236 354 l 1,19,-1
 177 354 l 1,20,-1
 177 235 l 1,21,-1
 118 235 l 1,22,-1
 118 116 l 1,23,-1
 0 116 l 1,0,-1
EndSplineSet
EndChar

StartChar: zero
Encoding: 48 48 19
Width: 708
VWidth: 1082
GlyphClass: 2
Flags: W
LayerCount: 2
Fore
SplineSet
296 116 m 1,0,-1
 296 176 l 1,1,-1
 354 176 l 1,2,-1
 354 649 l 1,3,-1
 296 649 l 1,4,-1
 296 708 l 1,5,-1
 177 708 l 1,6,-1
 177 649 l 1,7,-1
 118 649 l 1,8,-1
 118 176 l 1,9,-1
 177 176 l 1,10,-1
 177 116 l 1,11,-1
 296 116 l 1,0,-1
118 58 m 1,12,-1
 118 116 l 1,13,-1
 58 116 l 1,14,-1
 58 176 l 1,15,-1
 0 176 l 1,16,-1
 0 649 l 1,17,-1
 58 649 l 1,18,-1
 58 708 l 1,19,-1
 118 708 l 1,20,-1
 118 767 l 1,21,-1
 354 767 l 1,22,-1
 354 708 l 1,23,-1
 413 708 l 1,24,-1
 413 649 l 1,25,-1
 472 649 l 1,26,-1
 472 176 l 1,27,-1
 413 176 l 1,28,-1
 413 116 l 1,29,-1
 354 116 l 1,30,-1
 354 58 l 1,31,-1
 118 58 l 1,12,-1
EndSplineSet
EndChar

StartChar: one
Encoding: 49 49 20
Width: 708
VWidth: 1082
GlyphClass: 2
Flags: W
LayerCount: 2
Fore
SplineSet
236 58 m 1,0,-1
 236 649 l 1,1,-1
 118 649 l 1,2,-1
 118 708 l 1,3,-1
 236 708 l 1,4,-1
 236 767 l 1,5,-1
 354 767 l 1,6,-1
 354 58 l 1,7,-1
 236 58 l 1,0,-1
EndSplineSet
EndChar

StartChar: two
Encoding: 50 50 21
Width: 708
VWidth: 1082
GlyphClass: 2
Flags: W
LayerCount: 2
Fore
SplineSet
0 58 m 1,0,-1
 0 235 l 1,1,-1
 58 235 l 1,2,-1
 58 294 l 1,3,-1
 118 294 l 1,4,-1
 118 354 l 1,5,-1
 177 354 l 1,6,-1
 177 412 l 1,7,-1
 236 412 l 1,8,-1
 236 471 l 1,9,-1
 296 471 l 1,10,-1
 296 708 l 1,11,-1
 118 708 l 1,12,-1
 118 589 l 1,13,-1
 0 589 l 1,14,-1
 0 708 l 1,15,-1
 58 708 l 1,16,-1
 58 767 l 1,17,-1
 354 767 l 1,18,-1
 354 708 l 1,19,-1
 413 708 l 1,20,-1
 413 471 l 1,21,-1
 354 471 l 1,22,-1
 354 412 l 1,23,-1
 296 412 l 1,24,-1
 296 354 l 1,25,-1
 236 354 l 1,26,-1
 236 294 l 1,27,-1
 177 294 l 1,28,-1
 177 235 l 1,29,-1
 118 235 l 1,30,-1
 118 116 l 1,31,-1
 413 116 l 1,32,-1
 413 58 l 1,33,-1
 0 58 l 1,0,-1
EndSplineSet
EndChar

StartChar: three
Encoding: 51 51 22
Width: 708
VWidth: 1082
GlyphClass: 2
Flags: W
LayerCount: 2
Fore
SplineSet
58 58 m 1,0,-1
 58 116 l 1,1,-1
 0 116 l 1,2,-1
 0 235 l 1,3,-1
 118 235 l 1,4,-1
 118 116 l 1,5,-1
 296 116 l 1,6,-1
 296 412 l 1,7,-1
 58 412 l 1,8,-1
 58 471 l 1,9,-1
 296 471 l 1,10,-1
 296 708 l 1,11,-1
 118 708 l 1,12,-1
 118 589 l 1,13,-1
 0 589 l 1,14,-1
 0 708 l 1,15,-1
 58 708 l 1,16,-1
 58 767 l 1,17,-1
 354 767 l 1,18,-1
 354 708 l 1,19,-1
 413 708 l 1,20,-1
 413 471 l 1,21,-1
 354 471 l 1,22,-1
 354 412 l 1,23,-1
 413 412 l 1,24,-1
 413 116 l 1,25,-1
 354 116 l 1,26,-1
 354 58 l 1,27,-1
 58 58 l 1,0,-1
EndSplineSet
EndChar

StartChar: four
Encoding: 52 52 23
Width: 708
VWidth: 1082
GlyphClass: 2
Flags: W
LayerCount: 2
Fore
SplineSet
296 294 m 1,0,-1
 296 530 l 1,1,-1
 236 530 l 1,2,-1
 236 412 l 1,3,-1
 177 412 l 1,4,-1
 177 294 l 1,5,-1
 296 294 l 1,0,-1
296 58 m 1,6,-1
 296 235 l 1,7,-1
 0 235 l 1,8,-1
 0 294 l 1,9,-1
 58 294 l 1,10,-1
 58 412 l 1,11,-1
 118 412 l 1,12,-1
 118 530 l 1,13,-1
 177 530 l 1,14,-1
 177 649 l 1,15,-1
 236 649 l 1,16,-1
 236 767 l 1,17,-1
 413 767 l 1,18,-1
 413 294 l 1,19,-1
 472 294 l 1,20,-1
 472 235 l 1,21,-1
 413 235 l 1,22,-1
 413 58 l 1,23,-1
 296 58 l 1,6,-1
EndSplineSet
EndChar

StartChar: five
Encoding: 53 53 24
Width: 708
VWidth: 1082
GlyphClass: 2
Flags: W
LayerCount: 2
Fore
SplineSet
58 58 m 1,0,-1
 58 116 l 1,1,-1
 0 116 l 1,2,-1
 0 235 l 1,3,-1
 118 235 l 1,4,-1
 118 116 l 1,5,-1
 296 116 l 1,6,-1
 296 471 l 1,7,-1
 118 471 l 1,8,-1
 118 412 l 1,9,-1
 0 412 l 1,10,-1
 0 767 l 1,11,-1
 413 767 l 1,12,-1
 413 708 l 1,13,-1
 118 708 l 1,14,-1
 118 530 l 1,15,-1
 354 530 l 1,16,-1
 354 471 l 1,17,-1
 413 471 l 1,18,-1
 413 116 l 1,19,-1
 354 116 l 1,20,-1
 354 58 l 1,21,-1
 58 58 l 1,0,-1
EndSplineSet
EndChar

StartChar: six
Encoding: 54 54 25
Width: 708
VWidth: 1082
GlyphClass: 2
Flags: W
LayerCount: 2
Fore
SplineSet
296 116 m 1,0,-1
 296 412 l 1,1,-1
 118 412 l 1,2,-1
 118 116 l 1,3,-1
 296 116 l 1,0,-1
58 58 m 1,4,-1
 58 116 l 1,5,-1
 0 116 l 1,6,-1
 0 708 l 1,7,-1
 58 708 l 1,8,-1
 58 767 l 1,9,-1
 354 767 l 1,10,-1
 354 708 l 1,11,-1
 413 708 l 1,12,-1
 413 589 l 1,13,-1
 296 589 l 1,14,-1
 296 708 l 1,15,-1
 118 708 l 1,16,-1
 118 471 l 1,17,-1
 354 471 l 1,18,-1
 354 412 l 1,19,-1
 413 412 l 1,20,-1
 413 116 l 1,21,-1
 354 116 l 1,22,-1
 354 58 l 1,23,-1
 58 58 l 1,4,-1
EndSplineSet
EndChar

StartChar: seven
Encoding: 55 55 26
Width: 708
VWidth: 1082
GlyphClass: 2
Flags: W
LayerCount: 2
Fore
SplineSet
118 58 m 1,0,-1
 118 354 l 1,1,-1
 177 354 l 1,2,-1
 177 530 l 1,3,-1
 236 530 l 1,4,-1
 236 649 l 1,5,-1
 296 649 l 1,6,-1
 296 708 l 1,7,-1
 0 708 l 1,8,-1
 0 767 l 1,9,-1
 413 767 l 1,10,-1
 413 649 l 1,11,-1
 354 649 l 1,12,-1
 354 530 l 1,13,-1
 296 530 l 1,14,-1
 296 354 l 1,15,-1
 236 354 l 1,16,-1
 236 58 l 1,17,-1
 118 58 l 1,0,-1
EndSplineSet
EndChar

StartChar: eight
Encoding: 56 56 27
Width: 708
VWidth: 1082
GlyphClass: 2
Flags: W
LayerCount: 2
Fore
SplineSet
296 116 m 1,0,-1
 296 412 l 1,1,-1
 118 412 l 1,2,-1
 118 116 l 1,3,-1
 296 116 l 1,0,-1
296 471 m 1,4,-1
 296 708 l 1,5,-1
 118 708 l 1,6,-1
 118 471 l 1,7,-1
 296 471 l 1,4,-1
58 58 m 1,8,-1
 58 116 l 1,9,-1
 0 116 l 1,10,-1
 0 412 l 1,11,-1
 58 412 l 1,12,-1
 58 471 l 1,13,-1
 0 471 l 1,14,-1
 0 708 l 1,15,-1
 58 708 l 1,16,-1
 58 767 l 1,17,-1
 354 767 l 1,18,-1
 354 708 l 1,19,-1
 413 708 l 1,20,-1
 413 471 l 1,21,-1
 354 471 l 1,22,-1
 354 412 l 1,23,-1
 413 412 l 1,24,-1
 413 116 l 1,25,-1
 354 116 l 1,26,-1
 354 58 l 1,27,-1
 58 58 l 1,8,-1
EndSplineSet
EndChar

StartChar: nine
Encoding: 57 57 28
Width: 708
VWidth: 1082
GlyphClass: 2
Flags: W
LayerCount: 2
Fore
SplineSet
296 412 m 1,0,-1
 296 708 l 1,1,-1
 118 708 l 1,2,-1
 118 412 l 1,3,-1
 296 412 l 1,0,-1
58 58 m 1,4,-1
 58 116 l 1,5,-1
 0 116 l 1,6,-1
 0 235 l 1,7,-1
 118 235 l 1,8,-1
 118 116 l 1,9,-1
 296 116 l 1,10,-1
 296 354 l 1,11,-1
 58 354 l 1,12,-1
 58 412 l 1,13,-1
 0 412 l 1,14,-1
 0 708 l 1,15,-1
 58 708 l 1,16,-1
 58 767 l 1,17,-1
 354 767 l 1,18,-1
 354 708 l 1,19,-1
 413 708 l 1,20,-1
 413 116 l 1,21,-1
 354 116 l 1,22,-1
 354 58 l 1,23,-1
 58 58 l 1,4,-1
EndSplineSet
EndChar

StartChar: colon
Encoding: 58 58 29
Width: 708
VWidth: 1082
GlyphClass: 2
Flags: W
LayerCount: 2
Fore
SplineSet
177 176 m 1,0,-1
 177 294 l 1,1,-1
 296 294 l 1,2,-1
 296 176 l 1,3,-1
 177 176 l 1,0,-1
177 530 m 1,4,-1
 177 649 l 1,5,-1
 296 649 l 1,6,-1
 296 530 l 1,7,-1
 177 530 l 1,4,-1
EndSplineSet
EndChar

StartChar: semicolon
Encoding: 59 59 30
Width: 708
VWidth: 1082
GlyphClass: 2
Flags: W
LayerCount: 2
Fore
SplineSet
118 58 m 1,0,-1
 118 116 l 1,1,-1
 177 116 l 1,2,-1
 177 294 l 1,3,-1
 296 294 l 1,4,-1
 296 116 l 1,5,-1
 236 116 l 1,6,-1
 236 58 l 1,7,-1
 118 58 l 1,0,-1
177 530 m 1,8,-1
 177 649 l 1,9,-1
 296 649 l 1,10,-1
 296 530 l 1,11,-1
 177 530 l 1,8,-1
EndSplineSet
EndChar

StartChar: less
Encoding: 60 60 31
Width: 708
VWidth: 1082
GlyphClass: 2
Flags: W
LayerCount: 2
Fore
SplineSet
296 235 m 1,0,-1
 296 294 l 1,1,-1
 177 294 l 1,2,-1
 177 354 l 1,3,-1
 58 354 l 1,4,-1
 58 412 l 1,5,-1
 0 412 l 1,6,-1
 0 471 l 1,7,-1
 58 471 l 1,8,-1
 58 530 l 1,9,-1
 177 530 l 1,10,-1
 177 589 l 1,11,-1
 296 589 l 1,12,-1
 296 649 l 1,13,-1
 472 649 l 1,14,-1
 472 589 l 1,15,-1
 354 589 l 1,16,-1
 354 530 l 1,17,-1
 236 530 l 1,18,-1
 236 471 l 1,19,-1
 118 471 l 1,20,-1
 118 412 l 1,21,-1
 236 412 l 1,22,-1
 236 354 l 1,23,-1
 354 354 l 1,24,-1
 354 294 l 1,25,-1
 472 294 l 1,26,-1
 472 235 l 1,27,-1
 296 235 l 1,0,-1
EndSplineSet
EndChar

StartChar: equal
Encoding: 61 61 32
Width: 708
VWidth: 1082
GlyphClass: 2
Flags: W
LayerCount: 2
Fore
SplineSet
0 235 m 1,0,-1
 0 294 l 1,1,-1
 472 294 l 1,2,-1
 472 235 l 1,3,-1
 0 235 l 1,0,-1
0 412 m 1,4,-1
 0 471 l 1,5,-1
 472 471 l 1,6,-1
 472 412 l 1,7,-1
 0 412 l 1,4,-1
EndSplineSet
EndChar

StartChar: greater
Encoding: 62 62 33
Width: 708
VWidth: 1082
GlyphClass: 2
Flags: W
LayerCount: 2
Fore
SplineSet
0 235 m 1,0,-1
 0 294 l 1,1,-1
 118 294 l 1,2,-1
 118 354 l 1,3,-1
 236 354 l 1,4,-1
 236 412 l 1,5,-1
 354 412 l 1,6,-1
 354 471 l 1,7,-1
 236 471 l 1,8,-1
 236 530 l 1,9,-1
 118 530 l 1,10,-1
 118 589 l 1,11,-1
 0 589 l 1,12,-1
 0 649 l 1,13,-1
 177 649 l 1,14,-1
 177 589 l 1,15,-1
 296 589 l 1,16,-1
 296 530 l 1,17,-1
 413 530 l 1,18,-1
 413 471 l 1,19,-1
 472 471 l 1,20,-1
 472 412 l 1,21,-1
 413 412 l 1,22,-1
 413 354 l 1,23,-1
 296 354 l 1,24,-1
 296 294 l 1,25,-1
 177 294 l 1,26,-1
 177 235 l 1,27,-1
 0 235 l 1,0,-1
EndSplineSet
EndChar

StartChar: question
Encoding: 63 63 34
Width: 708
VWidth: 1082
GlyphClass: 2
Flags: W
LayerCount: 2
Fore
SplineSet
177 58 m 1,0,-1
 177 176 l 1,1,-1
 296 176 l 1,2,-1
 296 58 l 1,3,-1
 177 58 l 1,0,-1
177 235 m 1,4,-1
 177 412 l 1,5,-1
 236 412 l 1,6,-1
 236 471 l 1,7,-1
 296 471 l 1,8,-1
 296 530 l 1,9,-1
 354 530 l 1,10,-1
 354 649 l 1,11,-1
 296 649 l 1,12,-1
 296 708 l 1,13,-1
 177 708 l 1,14,-1
 177 649 l 1,15,-1
 118 649 l 1,16,-1
 118 530 l 1,17,-1
 0 530 l 1,18,-1
 0 649 l 1,19,-1
 58 649 l 1,20,-1
 58 708 l 1,21,-1
 118 708 l 1,22,-1
 118 767 l 1,23,-1
 354 767 l 1,24,-1
 354 708 l 1,25,-1
 413 708 l 1,26,-1
 413 649 l 1,27,-1
 472 649 l 1,28,-1
 472 530 l 1,29,-1
 413 530 l 1,30,-1
 413 471 l 1,31,-1
 354 471 l 1,32,-1
 354 412 l 1,33,-1
 296 412 l 1,34,-1
 296 235 l 1,35,-1
 177 235 l 1,4,-1
EndSplineSet
EndChar

StartChar: at
Encoding: 64 64 35
Width: 708
VWidth: 1082
GlyphClass: 2
Flags: W
LayerCount: 2
Fore
SplineSet
177 530 m 1,0,-1
 177 589 l 1,1,-1
 354 589 l 1,2,-1
 354 649 l 1,3,-1
 296 649 l 1,4,-1
 296 708 l 1,5,-1
 177 708 l 1,6,-1
 177 649 l 1,7,-1
 118 649 l 1,8,-1
 118 530 l 1,9,-1
 177 530 l 1,0,-1
118 58 m 1,10,-1
 118 116 l 1,11,-1
 58 116 l 1,12,-1
 58 176 l 1,13,-1
 0 176 l 1,14,-1
 0 649 l 1,15,-1
 58 649 l 1,16,-1
 58 708 l 1,17,-1
 118 708 l 1,18,-1
 118 767 l 1,19,-1
 354 767 l 1,20,-1
 354 708 l 1,21,-1
 413 708 l 1,22,-1
 413 649 l 1,23,-1
 472 649 l 1,24,-1
 472 235 l 1,25,-1
 177 235 l 1,26,-1
 177 294 l 1,27,-1
 118 294 l 1,28,-1
 118 176 l 1,29,-1
 177 176 l 1,30,-1
 177 116 l 1,31,-1
 296 116 l 1,32,-1
 296 176 l 1,33,-1
 413 176 l 1,34,-1
 413 116 l 1,35,-1
 354 116 l 1,36,-1
 354 58 l 1,37,-1
 118 58 l 1,10,-1
EndSplineSet
EndChar

StartChar: A
Encoding: 65 65 36
Width: 708
VWidth: 1082
GlyphClass: 2
Flags: W
LayerCount: 2
Fore
SplineSet
296 294 m 1,0,-1
 296 412 l 1,1,-1
 177 412 l 1,2,-1
 177 294 l 1,3,-1
 296 294 l 1,0,-1
0 58 m 1,4,-1
 0 235 l 1,5,-1
 58 235 l 1,6,-1
 58 412 l 1,7,-1
 118 412 l 1,8,-1
 118 589 l 1,9,-1
 177 589 l 1,10,-1
 177 767 l 1,11,-1
 296 767 l 1,12,-1
 296 589 l 1,13,-1
 354 589 l 1,14,-1
 354 412 l 1,15,-1
 413 412 l 1,16,-1
 413 235 l 1,17,-1
 472 235 l 1,18,-1
 472 58 l 1,19,-1
 354 58 l 1,20,-1
 354 235 l 1,21,-1
 118 235 l 1,22,-1
 118 58 l 1,23,-1
 0 58 l 1,4,-1
EndSplineSet
EndChar

StartChar: B
Encoding: 66 66 37
Width: 708
VWidth: 1082
GlyphClass: 2
Flags: W
LayerCount: 2
Fore
SplineSet
296 116 m 1,0,-1
 296 176 l 1,1,-1
 354 176 l 1,2,-1
 354 354 l 1,3,-1
 296 354 l 1,4,-1
 296 412 l 1,5,-1
 118 412 l 1,6,-1
 118 116 l 1,7,-1
 296 116 l 1,0,-1
296 471 m 1,8,-1
 296 530 l 1,9,-1
 354 530 l 1,10,-1
 354 649 l 1,11,-1
 296 649 l 1,12,-1
 296 708 l 1,13,-1
 118 708 l 1,14,-1
 118 471 l 1,15,-1
 296 471 l 1,8,-1
0 58 m 1,16,-1
 0 767 l 1,17,-1
 354 767 l 1,18,-1
 354 708 l 1,19,-1
 413 708 l 1,20,-1
 413 649 l 1,21,-1
 472 649 l 1,22,-1
 472 530 l 1,23,-1
 413 530 l 1,24,-1
 413 471 l 1,25,-1
 354 471 l 1,26,-1
 354 412 l 1,27,-1
 413 412 l 1,28,-1
 413 354 l 1,29,-1
 472 354 l 1,30,-1
 472 176 l 1,31,-1
 413 176 l 1,32,-1
 413 116 l 1,33,-1
 354 116 l 1,34,-1
 354 58 l 1,35,-1
 0 58 l 1,16,-1
EndSplineSet
EndChar

StartChar: C
Encoding: 67 67 38
Width: 708
VWidth: 1082
GlyphClass: 2
Flags: W
LayerCount: 2
Fore
SplineSet
118 58 m 1,0,-1
 118 116 l 1,1,-1
 58 116 l 1,2,-1
 58 176 l 1,3,-1
 0 176 l 1,4,-1
 0 649 l 1,5,-1
 58 649 l 1,6,-1
 58 708 l 1,7,-1
 118 708 l 1,8,-1
 118 767 l 1,9,-1
 354 767 l 1,10,-1
 354 708 l 1,11,-1
 413 708 l 1,12,-1
 413 649 l 1,13,-1
 472 649 l 1,14,-1
 472 530 l 1,15,-1
 354 530 l 1,16,-1
 354 649 l 1,17,-1
 296 649 l 1,18,-1
 296 708 l 1,19,-1
 177 708 l 1,20,-1
 177 649 l 1,21,-1
 118 649 l 1,22,-1
 118 176 l 1,23,-1
 177 176 l 1,24,-1
 177 116 l 1,25,-1
 296 116 l 1,26,-1
 296 176 l 1,27,-1
 354 176 l 1,28,-1
 354 294 l 1,29,-1
 472 294 l 1,30,-1
 472 176 l 1,31,-1
 413 176 l 1,32,-1
 413 116 l 1,33,-1
 354 116 l 1,34,-1
 354 58 l 1,35,-1
 118 58 l 1,0,-1
EndSplineSet
EndChar

StartChar: D
Encoding: 68 68 39
Width: 708
VWidth: 1082
GlyphClass: 2
Flags: W
LayerCount: 2
Fore
SplineSet
296 116 m 1,0,-1
 296 235 l 1,1,-1
 354 235 l 1,2,-1
 354 589 l 1,3,-1
 296 589 l 1,4,-1
 296 708 l 1,5,-1
 118 708 l 1,6,-1
 118 116 l 1,7,-1
 296 116 l 1,0,-1
0 58 m 1,8,-1
 0 767 l 1,9,-1
 354 767 l 1,10,-1
 354 708 l 1,11,-1
 413 708 l 1,12,-1
 413 589 l 1,13,-1
 472 589 l 1,14,-1
 472 235 l 1,15,-1
 413 235 l 1,16,-1
 413 116 l 1,17,-1
 354 116 l 1,18,-1
 354 58 l 1,19,-1
 0 58 l 1,8,-1
EndSplineSet
EndChar

StartChar: E
Encoding: 69 69 40
Width: 708
VWidth: 1082
GlyphClass: 2
Flags: W
LayerCount: 2
Fore
SplineSet
0 58 m 1,0,-1
 0 767 l 1,1,-1
 472 767 l 1,2,-1
 472 708 l 1,3,-1
 118 708 l 1,4,-1
 118 471 l 1,5,-1
 413 471 l 1,6,-1
 413 412 l 1,7,-1
 118 412 l 1,8,-1
 118 116 l 1,9,-1
 472 116 l 1,10,-1
 472 58 l 1,11,-1
 0 58 l 1,0,-1
EndSplineSet
EndChar

StartChar: F
Encoding: 70 70 41
Width: 708
VWidth: 1082
GlyphClass: 2
Flags: W
LayerCount: 2
Fore
SplineSet
0 58 m 1,0,-1
 0 767 l 1,1,-1
 472 767 l 1,2,-1
 472 708 l 1,3,-1
 118 708 l 1,4,-1
 118 471 l 1,5,-1
 413 471 l 1,6,-1
 413 412 l 1,7,-1
 118 412 l 1,8,-1
 118 58 l 1,9,-1
 0 58 l 1,0,-1
EndSplineSet
EndChar

StartChar: G
Encoding: 71 71 42
Width: 708
VWidth: 1082
GlyphClass: 2
Flags: W
LayerCount: 2
Fore
SplineSet
118 58 m 1,0,-1
 118 116 l 1,1,-1
 58 116 l 1,2,-1
 58 176 l 1,3,-1
 0 176 l 1,4,-1
 0 649 l 1,5,-1
 58 649 l 1,6,-1
 58 708 l 1,7,-1
 118 708 l 1,8,-1
 118 767 l 1,9,-1
 354 767 l 1,10,-1
 354 708 l 1,11,-1
 413 708 l 1,12,-1
 413 649 l 1,13,-1
 472 649 l 1,14,-1
 472 589 l 1,15,-1
 354 589 l 1,16,-1
 354 649 l 1,17,-1
 296 649 l 1,18,-1
 296 708 l 1,19,-1
 177 708 l 1,20,-1
 177 649 l 1,21,-1
 118 649 l 1,22,-1
 118 176 l 1,23,-1
 177 176 l 1,24,-1
 177 116 l 1,25,-1
 296 116 l 1,26,-1
 296 176 l 1,27,-1
 354 176 l 1,28,-1
 354 354 l 1,29,-1
 236 354 l 1,30,-1
 236 412 l 1,31,-1
 472 412 l 1,32,-1
 472 58 l 1,33,-1
 118 58 l 1,0,-1
EndSplineSet
EndChar

StartChar: H
Encoding: 72 72 43
Width: 708
VWidth: 1082
GlyphClass: 2
Flags: W
LayerCount: 2
Fore
SplineSet
0 58 m 1,0,-1
 0 767 l 1,1,-1
 118 767 l 1,2,-1
 118 471 l 1,3,-1
 354 471 l 1,4,-1
 354 767 l 1,5,-1
 472 767 l 1,6,-1
 472 58 l 1,7,-1
 354 58 l 1,8,-1
 354 412 l 1,9,-1
 118 412 l 1,10,-1
 118 58 l 1,11,-1
 0 58 l 1,0,-1
EndSplineSet
EndChar

StartChar: I
Encoding: 73 73 44
Width: 708
VWidth: 1082
GlyphClass: 2
Flags: W
LayerCount: 2
Fore
SplineSet
177 58 m 1,0,-1
 177 767 l 1,1,-1
 296 767 l 1,2,-1
 296 58 l 1,3,-1
 177 58 l 1,0,-1
EndSplineSet
EndChar

StartChar: J
Encoding: 74 74 45
Width: 708
VWidth: 1082
GlyphClass: 2
Flags: W
LayerCount: 2
Fore
SplineSet
118 58 m 1,0,-1
 118 116 l 1,1,-1
 58 116 l 1,2,-1
 58 235 l 1,3,-1
 177 235 l 1,4,-1
 177 116 l 1,5,-1
 296 116 l 1,6,-1
 296 767 l 1,7,-1
 413 767 l 1,8,-1
 413 116 l 1,9,-1
 354 116 l 1,10,-1
 354 58 l 1,11,-1
 118 58 l 1,0,-1
EndSplineSet
EndChar

StartChar: K
Encoding: 75 75 46
Width: 708
VWidth: 1082
GlyphClass: 2
Flags: W
LayerCount: 2
Fore
SplineSet
0 58 m 1,0,-1
 0 767 l 1,1,-1
 118 767 l 1,2,-1
 118 530 l 1,3,-1
 177 530 l 1,4,-1
 177 589 l 1,5,-1
 236 589 l 1,6,-1
 236 649 l 1,7,-1
 296 649 l 1,8,-1
 296 708 l 1,9,-1
 354 708 l 1,10,-1
 354 767 l 1,11,-1
 472 767 l 1,12,-1
 472 708 l 1,13,-1
 413 708 l 1,14,-1
 413 649 l 1,15,-1
 354 649 l 1,16,-1
 354 589 l 1,17,-1
 296 589 l 1,18,-1
 296 530 l 1,19,-1
 236 530 l 1,20,-1
 236 471 l 1,21,-1
 177 471 l 1,22,-1
 177 354 l 1,23,-1
 236 354 l 1,24,-1
 236 294 l 1,25,-1
 296 294 l 1,26,-1
 296 235 l 1,27,-1
 354 235 l 1,28,-1
 354 176 l 1,29,-1
 413 176 l 1,30,-1
 413 116 l 1,31,-1
 472 116 l 1,32,-1
 472 58 l 1,33,-1
 354 58 l 1,34,-1
 354 116 l 1,35,-1
 296 116 l 1,36,-1
 296 176 l 1,37,-1
 236 176 l 1,38,-1
 236 235 l 1,39,-1
 177 235 l 1,40,-1
 177 294 l 1,41,-1
 118 294 l 1,42,-1
 118 58 l 1,43,-1
 0 58 l 1,0,-1
EndSplineSet
EndChar

StartChar: L
Encoding: 76 76 47
Width: 708
VWidth: 1082
GlyphClass: 2
Flags: W
LayerCount: 2
Fore
SplineSet
0 58 m 1,0,-1
 0 767 l 1,1,-1
 118 767 l 1,2,-1
 118 116 l 1,3,-1
 472 116 l 1,4,-1
 472 58 l 1,5,-1
 0 58 l 1,0,-1
EndSplineSet
EndChar

StartChar: M
Encoding: 77 77 48
Width: 708
VWidth: 1082
GlyphClass: 2
Flags: W
LayerCount: 2
Fore
SplineSet
0 58 m 1,0,-1
 0 767 l 1,1,-1
 118 767 l 1,2,-1
 118 649 l 1,3,-1
 177 649 l 1,4,-1
 177 530 l 1,5,-1
 296 530 l 1,6,-1
 296 649 l 1,7,-1
 354 649 l 1,8,-1
 354 767 l 1,9,-1
 472 767 l 1,10,-1
 472 58 l 1,11,-1
 354 58 l 1,12,-1
 354 412 l 1,13,-1
 296 412 l 1,14,-1
 296 235 l 1,15,-1
 177 235 l 1,16,-1
 177 412 l 1,17,-1
 118 412 l 1,18,-1
 118 58 l 1,19,-1
 0 58 l 1,0,-1
EndSplineSet
EndChar

StartChar: N
Encoding: 78 78 49
Width: 708
VWidth: 1082
GlyphClass: 2
Flags: W
LayerCount: 2
Fore
SplineSet
0 58 m 1,0,-1
 0 767 l 1,1,-1
 118 767 l 1,2,-1
 118 708 l 1,3,-1
 177 708 l 1,4,-1
 177 589 l 1,5,-1
 236 589 l 1,6,-1
 236 471 l 1,7,-1
 296 471 l 1,8,-1
 296 354 l 1,9,-1
 354 354 l 1,10,-1
 354 767 l 1,11,-1
 472 767 l 1,12,-1
 472 58 l 1,13,-1
 354 58 l 1,14,-1
 354 116 l 1,15,-1
 296 116 l 1,16,-1
 296 235 l 1,17,-1
 236 235 l 1,18,-1
 236 354 l 1,19,-1
 177 354 l 1,20,-1
 177 471 l 1,21,-1
 118 471 l 1,22,-1
 118 58 l 1,23,-1
 0 58 l 1,0,-1
EndSplineSet
EndChar

StartChar: O
Encoding: 79 79 50
Width: 708
VWidth: 1082
GlyphClass: 2
Flags: W
LayerCount: 2
Fore
SplineSet
296 116 m 1,0,-1
 296 176 l 1,1,-1
 354 176 l 1,2,-1
 354 649 l 1,3,-1
 296 649 l 1,4,-1
 296 708 l 1,5,-1
 177 708 l 1,6,-1
 177 649 l 1,7,-1
 118 649 l 1,8,-1
 118 176 l 1,9,-1
 177 176 l 1,10,-1
 177 116 l 1,11,-1
 296 116 l 1,0,-1
118 58 m 1,12,-1
 118 116 l 1,13,-1
 58 116 l 1,14,-1
 58 176 l 1,15,-1
 0 176 l 1,16,-1
 0 649 l 1,17,-1
 58 649 l 1,18,-1
 58 708 l 1,19,-1
 118 708 l 1,20,-1
 118 767 l 1,21,-1
 354 767 l 1,22,-1
 354 708 l 1,23,-1
 413 708 l 1,24,-1
 413 649 l 1,25,-1
 472 649 l 1,26,-1
 472 176 l 1,27,-1
 413 176 l 1,28,-1
 413 116 l 1,29,-1
 354 116 l 1,30,-1
 354 58 l 1,31,-1
 118 58 l 1,12,-1
EndSplineSet
EndChar

StartChar: P
Encoding: 80 80 51
Width: 708
VWidth: 1082
GlyphClass: 2
Flags: W
LayerCount: 2
Fore
SplineSet
296 412 m 1,0,-1
 296 471 l 1,1,-1
 354 471 l 1,2,-1
 354 649 l 1,3,-1
 296 649 l 1,4,-1
 296 708 l 1,5,-1
 118 708 l 1,6,-1
 118 412 l 1,7,-1
 296 412 l 1,0,-1
0 58 m 1,8,-1
 0 767 l 1,9,-1
 354 767 l 1,10,-1
 354 708 l 1,11,-1
 413 708 l 1,12,-1
 413 649 l 1,13,-1
 472 649 l 1,14,-1
 472 471 l 1,15,-1
 413 471 l 1,16,-1
 413 412 l 1,17,-1
 354 412 l 1,18,-1
 354 354 l 1,19,-1
 118 354 l 1,20,-1
 118 58 l 1,21,-1
 0 58 l 1,8,-1
EndSplineSet
EndChar

StartChar: Q
Encoding: 81 81 52
Width: 708
VWidth: 1082
GlyphClass: 2
Flags: W
LayerCount: 2
Fore
SplineSet
296 116 m 1,0,-1
 296 176 l 1,1,-1
 236 176 l 1,2,-1
 236 235 l 1,3,-1
 177 235 l 1,4,-1
 177 294 l 1,5,-1
 296 294 l 1,6,-1
 296 235 l 1,7,-1
 354 235 l 1,8,-1
 354 649 l 1,9,-1
 296 649 l 1,10,-1
 296 708 l 1,11,-1
 177 708 l 1,12,-1
 177 649 l 1,13,-1
 118 649 l 1,14,-1
 118 176 l 1,15,-1
 177 176 l 1,16,-1
 177 116 l 1,17,-1
 296 116 l 1,0,-1
354 0 m 1,18,-1
 354 58 l 1,19,-1
 118 58 l 1,20,-1
 118 116 l 1,21,-1
 58 116 l 1,22,-1
 58 176 l 1,23,-1
 0 176 l 1,24,-1
 0 649 l 1,25,-1
 58 649 l 1,26,-1
 58 708 l 1,27,-1
 118 708 l 1,28,-1
 118 767 l 1,29,-1
 354 767 l 1,30,-1
 354 708 l 1,31,-1
 413 708 l 1,32,-1
 413 649 l 1,33,-1
 472 649 l 1,34,-1
 472 176 l 1,35,-1
 413 176 l 1,36,-1
 413 58 l 1,37,-1
 472 58 l 1,38,-1
 472 0 l 1,39,-1
 354 0 l 1,18,-1
EndSplineSet
EndChar

StartChar: R
Encoding: 82 82 53
Width: 708
VWidth: 1082
GlyphClass: 2
Flags: W
LayerCount: 2
Fore
SplineSet
296 412 m 1,0,-1
 296 471 l 1,1,-1
 354 471 l 1,2,-1
 354 649 l 1,3,-1
 296 649 l 1,4,-1
 296 708 l 1,5,-1
 118 708 l 1,6,-1
 118 412 l 1,7,-1
 296 412 l 1,0,-1
0 58 m 1,8,-1
 0 767 l 1,9,-1
 354 767 l 1,10,-1
 354 708 l 1,11,-1
 413 708 l 1,12,-1
 413 649 l 1,13,-1
 472 649 l 1,14,-1
 472 471 l 1,15,-1
 413 471 l 1,16,-1
 413 412 l 1,17,-1
 354 412 l 1,18,-1
 354 354 l 1,19,-1
 413 354 l 1,20,-1
 413 294 l 1,21,-1
 472 294 l 1,22,-1
 472 58 l 1,23,-1
 354 58 l 1,24,-1
 354 294 l 1,25,-1
 296 294 l 1,26,-1
 296 354 l 1,27,-1
 118 354 l 1,28,-1
 118 58 l 1,29,-1
 0 58 l 1,8,-1
EndSplineSet
EndChar

StartChar: S
Encoding: 83 83 54
Width: 708
VWidth: 1082
GlyphClass: 2
Flags: W
LayerCount: 2
Fore
SplineSet
118 58 m 1,0,-1
 118 116 l 1,1,-1
 58 116 l 1,2,-1
 58 176 l 1,3,-1
 0 176 l 1,4,-1
 0 235 l 1,5,-1
 118 235 l 1,6,-1
 118 176 l 1,7,-1
 177 176 l 1,8,-1
 177 116 l 1,9,-1
 296 116 l 1,10,-1
 296 176 l 1,11,-1
 354 176 l 1,12,-1
 354 354 l 1,13,-1
 296 354 l 1,14,-1
 296 412 l 1,15,-1
 177 412 l 1,16,-1
 177 471 l 1,17,-1
 58 471 l 1,18,-1
 58 530 l 1,19,-1
 0 530 l 1,20,-1
 0 649 l 1,21,-1
 58 649 l 1,22,-1
 58 708 l 1,23,-1
 118 708 l 1,24,-1
 118 767 l 1,25,-1
 354 767 l 1,26,-1
 354 708 l 1,27,-1
 413 708 l 1,28,-1
 413 649 l 1,29,-1
 472 649 l 1,30,-1
 472 589 l 1,31,-1
 354 589 l 1,32,-1
 354 649 l 1,33,-1
 296 649 l 1,34,-1
 296 708 l 1,35,-1
 177 708 l 1,36,-1
 177 649 l 1,37,-1
 118 649 l 1,38,-1
 118 530 l 1,39,-1
 236 530 l 1,40,-1
 236 471 l 1,41,-1
 354 471 l 1,42,-1
 354 412 l 1,43,-1
 413 412 l 1,44,-1
 413 354 l 1,45,-1
 472 354 l 1,46,-1
 472 176 l 1,47,-1
 413 176 l 1,48,-1
 413 116 l 1,49,-1
 354 116 l 1,50,-1
 354 58 l 1,51,-1
 118 58 l 1,0,-1
EndSplineSet
EndChar

StartChar: T
Encoding: 84 84 55
Width: 708
VWidth: 1082
GlyphClass: 2
Flags: W
LayerCount: 2
Fore
SplineSet
177 58 m 1,0,-1
 177 708 l 1,1,-1
 0 708 l 1,2,-1
 0 767 l 1,3,-1
 472 767 l 1,4,-1
 472 708 l 1,5,-1
 296 708 l 1,6,-1
 296 58 l 1,7,-1
 177 58 l 1,0,-1
EndSplineSet
EndChar

StartChar: U
Encoding: 85 85 56
Width: 708
VWidth: 1082
GlyphClass: 2
Flags: W
LayerCount: 2
Fore
SplineSet
58 58 m 1,0,-1
 58 116 l 1,1,-1
 0 116 l 1,2,-1
 0 767 l 1,3,-1
 118 767 l 1,4,-1
 118 116 l 1,5,-1
 354 116 l 1,6,-1
 354 767 l 1,7,-1
 472 767 l 1,8,-1
 472 116 l 1,9,-1
 413 116 l 1,10,-1
 413 58 l 1,11,-1
 58 58 l 1,0,-1
EndSplineSet
EndChar

StartChar: V
Encoding: 86 86 57
Width: 708
VWidth: 1082
GlyphClass: 2
Flags: W
LayerCount: 2
Fore
SplineSet
177 58 m 1,0,-1
 177 235 l 1,1,-1
 118 235 l 1,2,-1
 118 412 l 1,3,-1
 58 412 l 1,4,-1
 58 589 l 1,5,-1
 0 589 l 1,6,-1
 0 767 l 1,7,-1
 118 767 l 1,8,-1
 118 589 l 1,9,-1
 177 589 l 1,10,-1
 177 412 l 1,11,-1
 296 412 l 1,12,-1
 296 589 l 1,13,-1
 354 589 l 1,14,-1
 354 767 l 1,15,-1
 472 767 l 1,16,-1
 472 589 l 1,17,-1
 413 589 l 1,18,-1
 413 412 l 1,19,-1
 354 412 l 1,20,-1
 354 235 l 1,21,-1
 296 235 l 1,22,-1
 296 58 l 1,23,-1
 177 58 l 1,0,-1
EndSplineSet
EndChar

StartChar: W
Encoding: 87 87 58
Width: 708
VWidth: 1082
GlyphClass: 2
Flags: W
LayerCount: 2
Fore
SplineSet
58 58 m 1,0,-1
 58 294 l 1,1,-1
 0 294 l 1,2,-1
 0 767 l 1,3,-1
 118 767 l 1,4,-1
 118 530 l 1,5,-1
 177 530 l 1,6,-1
 177 767 l 1,7,-1
 296 767 l 1,8,-1
 296 530 l 1,9,-1
 354 530 l 1,10,-1
 354 767 l 1,11,-1
 472 767 l 1,12,-1
 472 294 l 1,13,-1
 413 294 l 1,14,-1
 413 58 l 1,15,-1
 296 58 l 1,16,-1
 296 294 l 1,17,-1
 177 294 l 1,18,-1
 177 58 l 1,19,-1
 58 58 l 1,0,-1
EndSplineSet
EndChar

StartChar: X
Encoding: 88 88 59
Width: 708
VWidth: 1082
GlyphClass: 2
Flags: W
LayerCount: 2
Fore
SplineSet
0 58 m 1,0,-1
 0 176 l 1,1,-1
 58 176 l 1,2,-1
 58 294 l 1,3,-1
 118 294 l 1,4,-1
 118 412 l 1,5,-1
 177 412 l 1,6,-1
 177 471 l 1,7,-1
 118 471 l 1,8,-1
 118 530 l 1,9,-1
 58 530 l 1,10,-1
 58 649 l 1,11,-1
 0 649 l 1,12,-1
 0 767 l 1,13,-1
 118 767 l 1,14,-1
 118 649 l 1,15,-1
 177 649 l 1,16,-1
 177 530 l 1,17,-1
 296 530 l 1,18,-1
 296 649 l 1,19,-1
 354 649 l 1,20,-1
 354 767 l 1,21,-1
 472 767 l 1,22,-1
 472 649 l 1,23,-1
 413 649 l 1,24,-1
 413 530 l 1,25,-1
 354 530 l 1,26,-1
 354 471 l 1,27,-1
 296 471 l 1,28,-1
 296 412 l 1,29,-1
 354 412 l 1,30,-1
 354 294 l 1,31,-1
 413 294 l 1,32,-1
 413 176 l 1,33,-1
 472 176 l 1,34,-1
 472 58 l 1,35,-1
 354 58 l 1,36,-1
 354 176 l 1,37,-1
 296 176 l 1,38,-1
 296 294 l 1,39,-1
 177 294 l 1,40,-1
 177 176 l 1,41,-1
 118 176 l 1,42,-1
 118 58 l 1,43,-1
 0 58 l 1,0,-1
EndSplineSet
EndChar

StartChar: Y
Encoding: 89 89 60
Width: 708
VWidth: 1082
GlyphClass: 2
Flags: W
LayerCount: 2
Fore
SplineSet
177 58 m 1,0,-1
 177 412 l 1,1,-1
 118 412 l 1,2,-1
 118 530 l 1,3,-1
 58 530 l 1,4,-1
 58 649 l 1,5,-1
 0 649 l 1,6,-1
 0 767 l 1,7,-1
 118 767 l 1,8,-1
 118 649 l 1,9,-1
 177 649 l 1,10,-1
 177 530 l 1,11,-1
 296 530 l 1,12,-1
 296 649 l 1,13,-1
 354 649 l 1,14,-1
 354 767 l 1,15,-1
 472 767 l 1,16,-1
 472 649 l 1,17,-1
 413 649 l 1,18,-1
 413 530 l 1,19,-1
 354 530 l 1,20,-1
 354 412 l 1,21,-1
 296 412 l 1,22,-1
 296 58 l 1,23,-1
 177 58 l 1,0,-1
EndSplineSet
EndChar

StartChar: Z
Encoding: 90 90 61
Width: 708
VWidth: 1082
GlyphClass: 2
Flags: W
LayerCount: 2
Fore
SplineSet
0 58 m 1,0,-1
 0 176 l 1,1,-1
 58 176 l 1,2,-1
 58 294 l 1,3,-1
 118 294 l 1,4,-1
 118 412 l 1,5,-1
 177 412 l 1,6,-1
 177 530 l 1,7,-1
 236 530 l 1,8,-1
 236 649 l 1,9,-1
 296 649 l 1,10,-1
 296 708 l 1,11,-1
 0 708 l 1,12,-1
 0 767 l 1,13,-1
 413 767 l 1,14,-1
 413 649 l 1,15,-1
 354 649 l 1,16,-1
 354 530 l 1,17,-1
 296 530 l 1,18,-1
 296 412 l 1,19,-1
 236 412 l 1,20,-1
 236 294 l 1,21,-1
 177 294 l 1,22,-1
 177 176 l 1,23,-1
 118 176 l 1,24,-1
 118 116 l 1,25,-1
 413 116 l 1,26,-1
 413 58 l 1,27,-1
 0 58 l 1,0,-1
EndSplineSet
EndChar

StartChar: bracketleft
Encoding: 91 91 62
Width: 708
VWidth: 1082
GlyphClass: 2
Flags: W
LayerCount: 2
Fore
SplineSet
58 0 m 1,0,-1
 58 767 l 1,1,-1
 354 767 l 1,2,-1
 354 708 l 1,3,-1
 177 708 l 1,4,-1
 177 58 l 1,5,-1
 354 58 l 1,6,-1
 354 0 l 1,7,-1
 58 0 l 1,0,-1
EndSplineSet
EndChar

StartChar: backslash
Encoding: 92 92 63
Width: 708
VWidth: 1082
GlyphClass: 2
Flags: W
LayerCount: 2
Fore
SplineSet
354 116 m 1,0,-1
 354 235 l 1,1,-1
 296 235 l 1,2,-1
 296 354 l 1,3,-1
 236 354 l 1,4,-1
 236 471 l 1,5,-1
 177 471 l 1,6,-1
 177 589 l 1,7,-1
 118 589 l 1,8,-1
 118 708 l 1,9,-1
 58 708 l 1,10,-1
 58 826 l 1,11,-1
 177 826 l 1,12,-1
 177 708 l 1,13,-1
 236 708 l 1,14,-1
 236 589 l 1,15,-1
 296 589 l 1,16,-1
 296 471 l 1,17,-1
 354 471 l 1,18,-1
 354 354 l 1,19,-1
 413 354 l 1,20,-1
 413 235 l 1,21,-1
 472 235 l 1,22,-1
 472 116 l 1,23,-1
 354 116 l 1,0,-1
EndSplineSet
EndChar

StartChar: bracketright
Encoding: 93 93 64
Width: 708
VWidth: 1082
GlyphClass: 2
Flags: W
LayerCount: 2
Fore
SplineSet
118 0 m 1,0,-1
 118 58 l 1,1,-1
 296 58 l 1,2,-1
 296 708 l 1,3,-1
 118 708 l 1,4,-1
 118 767 l 1,5,-1
 413 767 l 1,6,-1
 413 0 l 1,7,-1
 118 0 l 1,0,-1
EndSplineSet
EndChar

StartChar: asciicircum
Encoding: 94 94 65
Width: 708
VWidth: 1082
GlyphClass: 2
Flags: W
LayerCount: 2
Fore
SplineSet
58 589 m 1,0,-1
 58 649 l 1,1,-1
 118 649 l 1,2,-1
 118 708 l 1,3,-1
 177 708 l 1,4,-1
 177 767 l 1,5,-1
 296 767 l 1,6,-1
 296 708 l 1,7,-1
 354 708 l 1,8,-1
 354 649 l 1,9,-1
 413 649 l 1,10,-1
 413 589 l 1,11,-1
 296 589 l 1,12,-1
 296 649 l 1,13,-1
 177 649 l 1,14,-1
 177 589 l 1,15,-1
 58 589 l 1,0,-1
EndSplineSet
EndChar

StartChar: underscore
Encoding: 95 95 66
Width: 708
VWidth: 1082
GlyphClass: 2
Flags: W
LayerCount: 2
Fore
SplineSet
0 0 m 1,0,-1
 0 58 l 1,1,-1
 472 58 l 1,2,-1
 472 0 l 1,3,-1
 0 0 l 1,0,-1
EndSplineSet
EndChar

StartChar: grave
Encoding: 96 96 67
Width: 708
VWidth: 1082
GlyphClass: 2
Flags: W
LayerCount: 2
Fore
SplineSet
236 589 m 1,0,-1
 236 649 l 1,1,-1
 177 649 l 1,2,-1
 177 708 l 1,3,-1
 118 708 l 1,4,-1
 118 767 l 1,5,-1
 236 767 l 1,6,-1
 236 708 l 1,7,-1
 296 708 l 1,8,-1
 296 649 l 1,9,-1
 354 649 l 1,10,-1
 354 589 l 1,11,-1
 236 589 l 1,0,-1
EndSplineSet
EndChar

StartChar: a
Encoding: 97 97 68
Width: 708
VWidth: 1082
GlyphClass: 2
Flags: W
LayerCount: 2
Fore
SplineSet
296 116 m 1,0,-1
 296 294 l 1,1,-1
 118 294 l 1,2,-1
 118 116 l 1,3,-1
 296 116 l 1,0,-1
58 58 m 1,4,-1
 58 116 l 1,5,-1
 0 116 l 1,6,-1
 0 294 l 1,7,-1
 58 294 l 1,8,-1
 58 354 l 1,9,-1
 296 354 l 1,10,-1
 296 471 l 1,11,-1
 118 471 l 1,12,-1
 118 412 l 1,13,-1
 0 412 l 1,14,-1
 0 471 l 1,15,-1
 58 471 l 1,16,-1
 58 530 l 1,17,-1
 354 530 l 1,18,-1
 354 471 l 1,19,-1
 413 471 l 1,20,-1
 413 116 l 1,21,-1
 472 116 l 1,22,-1
 472 58 l 1,23,-1
 58 58 l 1,4,-1
EndSplineSet
EndChar

StartChar: b
Encoding: 98 98 69
Width: 708
VWidth: 1082
GlyphClass: 2
Flags: W
LayerCount: 2
Fore
SplineSet
296 116 m 5,0,-1
 296 176 l 5,1,-1
 354 176 l 5,2,-1
 354 412 l 5,3,-1
 296 412 l 5,4,-1
 296 471 l 5,5,-1
 177 471 l 5,6,-1
 177 412 l 5,7,-1
 118 412 l 5,8,-1
 118 176 l 5,9,-1
 177 176 l 5,10,-1
 177 116 l 5,11,-1
 296 116 l 5,0,-1
0 58 m 5,12,-1
 0 767 l 5,13,-1
 118 767 l 5,14,-1
 118 530 l 5,15,-1
 354 530 l 5,16,-1
 354 471 l 5,17,-1
 413 471 l 5,18,-1
 413 412 l 5,19,-1
 472 412 l 5,20,-1
 472 176 l 5,21,-1
 413 176 l 5,22,-1
 413 116 l 5,23,-1
 354 116 l 5,24,-1
 354 58 l 5,25,-1
 0 58 l 5,12,-1
EndSplineSet
EndChar

StartChar: c
Encoding: 99 99 70
Width: 708
VWidth: 1082
GlyphClass: 2
Flags: W
LayerCount: 2
Fore
SplineSet
118 58 m 1,0,-1
 118 116 l 1,1,-1
 58 116 l 1,2,-1
 58 176 l 1,3,-1
 0 176 l 1,4,-1
 0 412 l 1,5,-1
 58 412 l 1,6,-1
 58 471 l 1,7,-1
 118 471 l 1,8,-1
 118 530 l 1,9,-1
 413 530 l 1,10,-1
 413 471 l 1,11,-1
 472 471 l 1,12,-1
 472 412 l 1,13,-1
 354 412 l 1,14,-1
 354 471 l 1,15,-1
 177 471 l 1,16,-1
 177 412 l 1,17,-1
 118 412 l 1,18,-1
 118 176 l 1,19,-1
 177 176 l 1,20,-1
 177 116 l 1,21,-1
 354 116 l 1,22,-1
 354 176 l 1,23,-1
 472 176 l 1,24,-1
 472 116 l 1,25,-1
 413 116 l 1,26,-1
 413 58 l 1,27,-1
 118 58 l 1,0,-1
EndSplineSet
EndChar

StartChar: d
Encoding: 100 100 71
Width: 708
VWidth: 1082
GlyphClass: 2
Flags: W
LayerCount: 2
Fore
SplineSet
296 116 m 1,0,-1
 296 176 l 1,1,-1
 354 176 l 1,2,-1
 354 412 l 1,3,-1
 296 412 l 1,4,-1
 296 471 l 1,5,-1
 177 471 l 1,6,-1
 177 412 l 1,7,-1
 118 412 l 1,8,-1
 118 176 l 1,9,-1
 177 176 l 1,10,-1
 177 116 l 1,11,-1
 296 116 l 1,0,-1
118 58 m 1,12,-1
 118 116 l 1,13,-1
 58 116 l 1,14,-1
 58 176 l 1,15,-1
 0 176 l 1,16,-1
 0 412 l 1,17,-1
 58 412 l 1,18,-1
 58 471 l 1,19,-1
 118 471 l 1,20,-1
 118 530 l 1,21,-1
 354 530 l 1,22,-1
 354 767 l 1,23,-1
 472 767 l 1,24,-1
 472 58 l 1,25,-1
 118 58 l 1,12,-1
EndSplineSet
EndChar

StartChar: e
Encoding: 101 101 72
Width: 708
VWidth: 1082
GlyphClass: 2
Flags: W
LayerCount: 2
Fore
SplineSet
354 354 m 1,0,-1
 354 412 l 1,1,-1
 296 412 l 1,2,-1
 296 471 l 1,3,-1
 177 471 l 1,4,-1
 177 412 l 1,5,-1
 118 412 l 1,6,-1
 118 354 l 1,7,-1
 354 354 l 1,0,-1
118 58 m 1,8,-1
 118 116 l 1,9,-1
 58 116 l 1,10,-1
 58 176 l 1,11,-1
 0 176 l 1,12,-1
 0 412 l 1,13,-1
 58 412 l 1,14,-1
 58 471 l 1,15,-1
 118 471 l 1,16,-1
 118 530 l 1,17,-1
 354 530 l 1,18,-1
 354 471 l 1,19,-1
 413 471 l 1,20,-1
 413 412 l 1,21,-1
 472 412 l 1,22,-1
 472 294 l 1,23,-1
 118 294 l 1,24,-1
 118 176 l 1,25,-1
 177 176 l 1,26,-1
 177 116 l 1,27,-1
 354 116 l 1,28,-1
 354 176 l 1,29,-1
 472 176 l 1,30,-1
 472 116 l 1,31,-1
 413 116 l 1,32,-1
 413 58 l 1,33,-1
 118 58 l 1,8,-1
EndSplineSet
EndChar

StartChar: f
Encoding: 102 102 73
Width: 708
VWidth: 1082
GlyphClass: 2
Flags: W
LayerCount: 2
Fore
SplineSet
118 58 m 1,0,-1
 118 471 l 1,1,-1
 0 471 l 1,2,-1
 0 530 l 1,3,-1
 118 530 l 1,4,-1
 118 708 l 1,5,-1
 177 708 l 1,6,-1
 177 767 l 1,7,-1
 413 767 l 1,8,-1
 413 708 l 1,9,-1
 236 708 l 1,10,-1
 236 530 l 1,11,-1
 413 530 l 1,12,-1
 413 471 l 1,13,-1
 236 471 l 1,14,-1
 236 58 l 1,15,-1
 118 58 l 1,0,-1
EndSplineSet
EndChar

StartChar: g
Encoding: 103 103 74
Width: 708
VWidth: 1082
GlyphClass: 2
Flags: W
LayerCount: 2
Fore
SplineSet
296 235 m 1,0,-1
 296 471 l 1,1,-1
 118 471 l 1,2,-1
 118 235 l 1,3,-1
 296 235 l 1,0,-1
58 0 m 5,4,-1
 58 58 l 1,5,-1
 0 58 l 1,6,-1
 0 116 l 1,7,-1
 118 116 l 1,8,-1
 118 58 l 1,9,-1
 296 58 l 1,10,-1
 296 176 l 1,11,-1
 58 176 l 1,12,-1
 58 235 l 1,13,-1
 0 235 l 1,14,-1
 0 471 l 1,15,-1
 58 471 l 1,16,-1
 58 530 l 1,17,-1
 413 530 l 1,18,-1
 413 58 l 1,19,-1
 354 58 l 1,20,-1
 354 0 l 1,21,-1
 58 0 l 5,4,-1
EndSplineSet
EndChar

StartChar: h
Encoding: 104 104 75
Width: 708
VWidth: 1082
GlyphClass: 2
Flags: W
LayerCount: 2
Fore
SplineSet
0 58 m 1,0,-1
 0 767 l 1,1,-1
 118 767 l 1,2,-1
 118 530 l 1,3,-1
 354 530 l 1,4,-1
 354 471 l 1,5,-1
 413 471 l 1,6,-1
 413 58 l 1,7,-1
 296 58 l 1,8,-1
 296 471 l 1,9,-1
 177 471 l 1,10,-1
 177 412 l 1,11,-1
 118 412 l 1,12,-1
 118 58 l 1,13,-1
 0 58 l 1,0,-1
EndSplineSet
EndChar

StartChar: i
Encoding: 105 105 76
Width: 708
VWidth: 1082
GlyphClass: 2
Flags: W
LayerCount: 2
Fore
SplineSet
177 58 m 1,0,-1
 177 530 l 1,1,-1
 296 530 l 1,2,-1
 296 58 l 1,3,-1
 177 58 l 1,0,-1
177 649 m 1,4,-1
 177 767 l 1,5,-1
 296 767 l 1,6,-1
 296 649 l 1,7,-1
 177 649 l 1,4,-1
EndSplineSet
EndChar

StartChar: j
Encoding: 106 106 77
Width: 708
VWidth: 1082
GlyphClass: 2
Flags: W
LayerCount: 2
Fore
SplineSet
118 0 m 1,0,-1
 118 58 l 1,1,-1
 236 58 l 1,2,-1
 236 530 l 1,3,-1
 354 530 l 1,4,-1
 354 58 l 1,5,-1
 296 58 l 1,6,-1
 296 0 l 1,7,-1
 118 0 l 1,0,-1
236 649 m 1,8,-1
 236 767 l 1,9,-1
 354 767 l 1,10,-1
 354 649 l 1,11,-1
 236 649 l 1,8,-1
EndSplineSet
EndChar

StartChar: k
Encoding: 107 107 78
Width: 708
VWidth: 1082
GlyphClass: 2
Flags: W
LayerCount: 2
Fore
SplineSet
0 58 m 1,0,-1
 0 767 l 1,1,-1
 118 767 l 1,2,-1
 118 412 l 1,3,-1
 177 412 l 1,4,-1
 177 471 l 1,5,-1
 236 471 l 1,6,-1
 236 530 l 1,7,-1
 296 530 l 1,8,-1
 296 589 l 1,9,-1
 413 589 l 1,10,-1
 413 530 l 1,11,-1
 354 530 l 1,12,-1
 354 471 l 1,13,-1
 296 471 l 1,14,-1
 296 412 l 1,15,-1
 236 412 l 1,16,-1
 236 354 l 1,17,-1
 177 354 l 1,18,-1
 177 294 l 1,19,-1
 236 294 l 1,20,-1
 236 235 l 1,21,-1
 296 235 l 1,22,-1
 296 176 l 1,23,-1
 354 176 l 1,24,-1
 354 116 l 1,25,-1
 413 116 l 1,26,-1
 413 58 l 1,27,-1
 296 58 l 1,28,-1
 296 116 l 1,29,-1
 236 116 l 1,30,-1
 236 176 l 1,31,-1
 177 176 l 1,32,-1
 177 235 l 1,33,-1
 118 235 l 1,34,-1
 118 58 l 1,35,-1
 0 58 l 1,0,-1
EndSplineSet
EndChar

StartChar: l
Encoding: 108 108 79
Width: 708
VWidth: 1082
GlyphClass: 2
Flags: W
LayerCount: 2
Fore
SplineSet
177 58 m 1,0,-1
 177 767 l 1,1,-1
 296 767 l 1,2,-1
 296 58 l 1,3,-1
 177 58 l 1,0,-1
EndSplineSet
EndChar

StartChar: m
Encoding: 109 109 80
Width: 708
VWidth: 1082
GlyphClass: 2
Flags: W
LayerCount: 2
Fore
SplineSet
0 58 m 1,0,-1
 0 530 l 1,1,-1
 413 530 l 1,2,-1
 413 471 l 1,3,-1
 472 471 l 1,4,-1
 472 58 l 1,5,-1
 354 58 l 1,6,-1
 354 471 l 1,7,-1
 296 471 l 1,8,-1
 296 58 l 1,9,-1
 177 58 l 1,10,-1
 177 471 l 1,11,-1
 118 471 l 1,12,-1
 118 58 l 1,13,-1
 0 58 l 1,0,-1
EndSplineSet
EndChar

StartChar: n
Encoding: 110 110 81
Width: 708
VWidth: 1082
GlyphClass: 2
Flags: W
LayerCount: 2
Fore
SplineSet
0 58 m 1,0,-1
 0 530 l 1,1,-1
 354 530 l 1,2,-1
 354 471 l 1,3,-1
 413 471 l 1,4,-1
 413 58 l 1,5,-1
 296 58 l 1,6,-1
 296 471 l 1,7,-1
 177 471 l 1,8,-1
 177 412 l 1,9,-1
 118 412 l 1,10,-1
 118 58 l 1,11,-1
 0 58 l 1,0,-1
EndSplineSet
EndChar

StartChar: o
Encoding: 111 111 82
Width: 708
VWidth: 1082
GlyphClass: 2
Flags: W
LayerCount: 2
Fore
SplineSet
296 116 m 1,0,-1
 296 176 l 1,1,-1
 354 176 l 1,2,-1
 354 412 l 1,3,-1
 296 412 l 1,4,-1
 296 471 l 1,5,-1
 177 471 l 1,6,-1
 177 412 l 1,7,-1
 118 412 l 1,8,-1
 118 176 l 1,9,-1
 177 176 l 1,10,-1
 177 116 l 1,11,-1
 296 116 l 1,0,-1
118 58 m 1,12,-1
 118 116 l 1,13,-1
 58 116 l 1,14,-1
 58 176 l 1,15,-1
 0 176 l 1,16,-1
 0 412 l 1,17,-1
 58 412 l 1,18,-1
 58 471 l 1,19,-1
 118 471 l 1,20,-1
 118 530 l 1,21,-1
 354 530 l 1,22,-1
 354 471 l 1,23,-1
 413 471 l 1,24,-1
 413 412 l 1,25,-1
 472 412 l 1,26,-1
 472 176 l 1,27,-1
 413 176 l 1,28,-1
 413 116 l 1,29,-1
 354 116 l 1,30,-1
 354 58 l 1,31,-1
 118 58 l 1,12,-1
EndSplineSet
EndChar

StartChar: p
Encoding: 112 112 83
Width: 708
VWidth: 1082
GlyphClass: 2
Flags: W
LayerCount: 2
Fore
SplineSet
296 176 m 1,0,-1
 296 235 l 1,1,-1
 354 235 l 1,2,-1
 354 412 l 1,3,-1
 296 412 l 1,4,-1
 296 471 l 1,5,-1
 177 471 l 1,6,-1
 177 412 l 1,7,-1
 118 412 l 1,8,-1
 118 235 l 1,9,-1
 177 235 l 1,10,-1
 177 176 l 1,11,-1
 296 176 l 1,0,-1
0 0 m 1,12,-1
 0 530 l 1,13,-1
 354 530 l 1,14,-1
 354 471 l 1,15,-1
 413 471 l 1,16,-1
 413 412 l 1,17,-1
 472 412 l 1,18,-1
 472 235 l 1,19,-1
 413 235 l 1,20,-1
 413 176 l 1,21,-1
 354 176 l 1,22,-1
 354 116 l 1,23,-1
 118 116 l 1,24,-1
 118 0 l 1,25,-1
 0 0 l 1,12,-1
EndSplineSet
EndChar

StartChar: q
Encoding: 113 113 84
Width: 708
VWidth: 1082
GlyphClass: 2
Flags: W
LayerCount: 2
Fore
SplineSet
296 176 m 1,0,-1
 296 235 l 1,1,-1
 354 235 l 1,2,-1
 354 412 l 1,3,-1
 296 412 l 1,4,-1
 296 471 l 1,5,-1
 177 471 l 1,6,-1
 177 412 l 1,7,-1
 118 412 l 1,8,-1
 118 235 l 1,9,-1
 177 235 l 1,10,-1
 177 176 l 1,11,-1
 296 176 l 1,0,-1
354 0 m 1,12,-1
 354 116 l 1,13,-1
 118 116 l 1,14,-1
 118 176 l 1,15,-1
 58 176 l 1,16,-1
 58 235 l 1,17,-1
 0 235 l 1,18,-1
 0 412 l 1,19,-1
 58 412 l 1,20,-1
 58 471 l 1,21,-1
 118 471 l 1,22,-1
 118 530 l 1,23,-1
 472 530 l 1,24,-1
 472 0 l 1,25,-1
 354 0 l 1,12,-1
EndSplineSet
EndChar

StartChar: r
Encoding: 114 114 85
Width: 708
VWidth: 1082
GlyphClass: 2
Flags: W
LayerCount: 2
Fore
SplineSet
58 58 m 1,0,-1
 58 530 l 1,1,-1
 413 530 l 1,2,-1
 413 471 l 1,3,-1
 236 471 l 1,4,-1
 236 412 l 1,5,-1
 177 412 l 1,6,-1
 177 58 l 1,7,-1
 58 58 l 1,0,-1
EndSplineSet
EndChar

StartChar: s
Encoding: 115 115 86
Width: 708
VWidth: 1082
GlyphClass: 2
Flags: W
LayerCount: 2
Fore
SplineSet
58 58 m 1,0,-1
 58 116 l 1,1,-1
 0 116 l 1,2,-1
 0 176 l 1,3,-1
 118 176 l 1,4,-1
 118 116 l 1,5,-1
 296 116 l 1,6,-1
 296 235 l 1,7,-1
 177 235 l 1,8,-1
 177 294 l 1,9,-1
 58 294 l 1,10,-1
 58 354 l 1,11,-1
 0 354 l 1,12,-1
 0 471 l 1,13,-1
 58 471 l 1,14,-1
 58 530 l 1,15,-1
 354 530 l 1,16,-1
 354 471 l 1,17,-1
 413 471 l 1,18,-1
 413 412 l 1,19,-1
 296 412 l 1,20,-1
 296 471 l 1,21,-1
 118 471 l 1,22,-1
 118 354 l 1,23,-1
 236 354 l 1,24,-1
 236 294 l 1,25,-1
 354 294 l 1,26,-1
 354 235 l 1,27,-1
 413 235 l 1,28,-1
 413 116 l 1,29,-1
 354 116 l 1,30,-1
 354 58 l 1,31,-1
 58 58 l 1,0,-1
EndSplineSet
EndChar

StartChar: t
Encoding: 116 116 87
Width: 708
VWidth: 1082
GlyphClass: 2
Flags: W
LayerCount: 2
Fore
SplineSet
177 58 m 1,0,-1
 177 116 l 1,1,-1
 118 116 l 1,2,-1
 118 471 l 1,3,-1
 0 471 l 1,4,-1
 0 530 l 1,5,-1
 118 530 l 1,6,-1
 118 767 l 1,7,-1
 236 767 l 1,8,-1
 236 530 l 1,9,-1
 413 530 l 1,10,-1
 413 471 l 1,11,-1
 236 471 l 1,12,-1
 236 116 l 1,13,-1
 413 116 l 1,14,-1
 413 58 l 1,15,-1
 177 58 l 1,0,-1
EndSplineSet
EndChar

StartChar: u
Encoding: 117 117 88
Width: 708
VWidth: 1082
GlyphClass: 2
Flags: W
LayerCount: 2
Fore
SplineSet
58 58 m 1,0,-1
 58 116 l 1,1,-1
 0 116 l 1,2,-1
 0 530 l 1,3,-1
 118 530 l 1,4,-1
 118 116 l 1,5,-1
 296 116 l 1,6,-1
 296 530 l 1,7,-1
 413 530 l 1,8,-1
 413 58 l 1,9,-1
 58 58 l 1,0,-1
EndSplineSet
EndChar

StartChar: v
Encoding: 118 118 89
Width: 708
VWidth: 1082
GlyphClass: 2
Flags: W
LayerCount: 2
Fore
SplineSet
177 58 m 1,0,-1
 177 176 l 1,1,-1
 118 176 l 1,2,-1
 118 294 l 1,3,-1
 58 294 l 1,4,-1
 58 412 l 1,5,-1
 0 412 l 1,6,-1
 0 530 l 1,7,-1
 118 530 l 1,8,-1
 118 412 l 1,9,-1
 177 412 l 1,10,-1
 177 294 l 1,11,-1
 296 294 l 1,12,-1
 296 412 l 1,13,-1
 354 412 l 1,14,-1
 354 530 l 1,15,-1
 472 530 l 1,16,-1
 472 412 l 1,17,-1
 413 412 l 1,18,-1
 413 294 l 1,19,-1
 354 294 l 1,20,-1
 354 176 l 1,21,-1
 296 176 l 1,22,-1
 296 58 l 1,23,-1
 177 58 l 1,0,-1
EndSplineSet
EndChar

StartChar: w
Encoding: 119 119 90
Width: 708
VWidth: 1082
GlyphClass: 2
Flags: W
LayerCount: 2
Fore
SplineSet
58 58 m 1,0,-1
 58 235 l 1,1,-1
 0 235 l 1,2,-1
 0 530 l 1,3,-1
 118 530 l 1,4,-1
 118 294 l 1,5,-1
 177 294 l 1,6,-1
 177 471 l 1,7,-1
 296 471 l 1,8,-1
 296 294 l 1,9,-1
 354 294 l 1,10,-1
 354 530 l 1,11,-1
 472 530 l 1,12,-1
 472 235 l 1,13,-1
 413 235 l 1,14,-1
 413 58 l 1,15,-1
 296 58 l 1,16,-1
 296 176 l 1,17,-1
 177 176 l 1,18,-1
 177 58 l 1,19,-1
 58 58 l 1,0,-1
EndSplineSet
EndChar

StartChar: x
Encoding: 120 120 91
Width: 708
VWidth: 1082
GlyphClass: 2
Flags: W
LayerCount: 2
Fore
SplineSet
0 58 m 1,0,-1
 0 116 l 1,1,-1
 58 116 l 1,2,-1
 58 176 l 1,3,-1
 118 176 l 1,4,-1
 118 235 l 1,5,-1
 177 235 l 1,6,-1
 177 354 l 1,7,-1
 118 354 l 1,8,-1
 118 412 l 1,9,-1
 58 412 l 1,10,-1
 58 471 l 1,11,-1
 0 471 l 1,12,-1
 0 530 l 1,13,-1
 118 530 l 1,14,-1
 118 471 l 1,15,-1
 177 471 l 1,16,-1
 177 412 l 1,17,-1
 296 412 l 1,18,-1
 296 471 l 1,19,-1
 354 471 l 1,20,-1
 354 530 l 1,21,-1
 472 530 l 1,22,-1
 472 471 l 1,23,-1
 413 471 l 1,24,-1
 413 412 l 1,25,-1
 354 412 l 1,26,-1
 354 354 l 1,27,-1
 296 354 l 1,28,-1
 296 235 l 1,29,-1
 354 235 l 1,30,-1
 354 176 l 1,31,-1
 413 176 l 1,32,-1
 413 116 l 1,33,-1
 472 116 l 1,34,-1
 472 58 l 1,35,-1
 354 58 l 1,36,-1
 354 116 l 1,37,-1
 296 116 l 1,38,-1
 296 176 l 1,39,-1
 177 176 l 1,40,-1
 177 116 l 1,41,-1
 118 116 l 1,42,-1
 118 58 l 1,43,-1
 0 58 l 1,0,-1
EndSplineSet
EndChar

StartChar: y
Encoding: 121 121 92
Width: 708
VWidth: 1082
GlyphClass: 2
Flags: W
LayerCount: 2
Fore
SplineSet
0 0 m 1,0,-1
 0 58 l 1,1,-1
 177 58 l 1,2,-1
 177 176 l 1,3,-1
 118 176 l 1,4,-1
 118 294 l 1,5,-1
 58 294 l 1,6,-1
 58 412 l 1,7,-1
 0 412 l 1,8,-1
 0 530 l 1,9,-1
 118 530 l 1,10,-1
 118 412 l 1,11,-1
 177 412 l 1,12,-1
 177 294 l 1,13,-1
 296 294 l 1,14,-1
 296 412 l 1,15,-1
 354 412 l 1,16,-1
 354 530 l 1,17,-1
 472 530 l 1,18,-1
 472 412 l 1,19,-1
 413 412 l 1,20,-1
 413 294 l 1,21,-1
 354 294 l 1,22,-1
 354 176 l 1,23,-1
 296 176 l 1,24,-1
 296 58 l 1,25,-1
 236 58 l 1,26,-1
 236 0 l 1,27,-1
 0 0 l 1,0,-1
EndSplineSet
EndChar

StartChar: z
Encoding: 122 122 93
Width: 708
VWidth: 1082
GlyphClass: 2
Flags: W
LayerCount: 2
Fore
SplineSet
0 58 m 1,0,-1
 0 176 l 1,1,-1
 58 176 l 1,2,-1
 58 235 l 1,3,-1
 118 235 l 1,4,-1
 118 294 l 1,5,-1
 177 294 l 1,6,-1
 177 354 l 1,7,-1
 236 354 l 1,8,-1
 236 412 l 1,9,-1
 296 412 l 1,10,-1
 296 471 l 1,11,-1
 0 471 l 1,12,-1
 0 530 l 1,13,-1
 413 530 l 1,14,-1
 413 412 l 1,15,-1
 354 412 l 1,16,-1
 354 354 l 1,17,-1
 296 354 l 1,18,-1
 296 294 l 1,19,-1
 236 294 l 1,20,-1
 236 235 l 1,21,-1
 177 235 l 1,22,-1
 177 176 l 1,23,-1
 118 176 l 1,24,-1
 118 116 l 1,25,-1
 413 116 l 1,26,-1
 413 58 l 1,27,-1
 0 58 l 1,0,-1
EndSplineSet
EndChar

StartChar: braceleft
Encoding: 123 123 94
Width: 708
VWidth: 1082
GlyphClass: 2
Flags: W
LayerCount: 2
Fore
SplineSet
236 0 m 1,0,-1
 236 58 l 1,1,-1
 177 58 l 1,2,-1
 177 354 l 1,3,-1
 58 354 l 1,4,-1
 58 412 l 1,5,-1
 177 412 l 1,6,-1
 177 708 l 1,7,-1
 236 708 l 1,8,-1
 236 767 l 1,9,-1
 413 767 l 1,10,-1
 413 708 l 1,11,-1
 296 708 l 1,12,-1
 296 412 l 1,13,-1
 236 412 l 1,14,-1
 236 354 l 1,15,-1
 296 354 l 1,16,-1
 296 58 l 1,17,-1
 413 58 l 1,18,-1
 413 0 l 1,19,-1
 236 0 l 1,0,-1
EndSplineSet
EndChar

StartChar: bar
Encoding: 124 124 95
Width: 708
VWidth: 1082
GlyphClass: 2
Flags: W
LayerCount: 2
Fore
SplineSet
177 0 m 1,0,-1
 177 826 l 1,1,-1
 296 826 l 1,2,-1
 296 0 l 1,3,-1
 177 0 l 1,0,-1
EndSplineSet
EndChar

StartChar: braceright
Encoding: 125 125 96
Width: 708
VWidth: 1082
GlyphClass: 2
Flags: W
LayerCount: 2
Fore
SplineSet
58 0 m 1,0,-1
 58 58 l 1,1,-1
 177 58 l 1,2,-1
 177 354 l 1,3,-1
 236 354 l 1,4,-1
 236 412 l 1,5,-1
 177 412 l 1,6,-1
 177 708 l 1,7,-1
 58 708 l 1,8,-1
 58 767 l 1,9,-1
 236 767 l 1,10,-1
 236 708 l 1,11,-1
 296 708 l 1,12,-1
 296 412 l 1,13,-1
 413 412 l 1,14,-1
 413 354 l 1,15,-1
 296 354 l 1,16,-1
 296 58 l 1,17,-1
 236 58 l 1,18,-1
 236 0 l 1,19,-1
 58 0 l 1,0,-1
EndSplineSet
EndChar

StartChar: asciitilde
Encoding: 126 126 97
Width: 708
VWidth: 1082
GlyphClass: 2
Flags: W
LayerCount: 2
Fore
SplineSet
0 354 m 1,0,-1
 0 412 l 1,1,-1
 58 412 l 1,2,-1
 58 471 l 1,3,-1
 236 471 l 1,4,-1
 236 412 l 1,5,-1
 354 412 l 1,6,-1
 354 471 l 1,7,-1
 472 471 l 1,8,-1
 472 412 l 1,9,-1
 413 412 l 1,10,-1
 413 354 l 1,11,-1
 177 354 l 1,12,-1
 177 412 l 1,13,-1
 118 412 l 1,14,-1
 118 354 l 1,15,-1
 0 354 l 1,0,-1
EndSplineSet
EndChar
